<svg width="495" height="148" viewBox="0 0 495 148" fill="none" xmlns="http://www.w3.org/2000/svg">
<path d="M10 64C4.47715 64 0 68.4772 0 74C0 79.5228 4.47715 84 10 84V64ZM492.071 81.0711C495.976 77.1658 495.976 70.8342 492.071 66.9289L428.431 3.28932C424.526 -0.615921 418.195 -0.615921 414.289 3.28932C410.384 7.19456 410.384 13.5262 414.289 17.4315L470.858 74L414.289 130.569C410.384 134.474 410.384 140.805 414.289 144.711C418.195 148.616 424.526 148.616 428.431 144.711L492.071 81.0711ZM10 84H485V64H10V84Z" fill="black"/>
</svg>
