<svg width="495" height="148" viewBox="0 0 495 148" fill="none" xmlns="http://www.w3.org/2000/svg">
<path d="M2.92893 66.9289C-0.976311 70.8342 -0.976311 77.1658 2.92893 81.0711L66.5685 144.711C70.4738 148.616 76.8054 148.616 80.7107 144.711C84.6159 140.805 84.6159 134.474 80.7107 130.569L24.1421 74L80.7107 17.4315C84.6159 13.5262 84.6159 7.19456 80.7107 3.28932C76.8054 -0.615921 70.4738 -0.615921 66.5685 3.28932L2.92893 66.9289ZM485 84C490.523 84 495 79.5228 495 74C495 68.4772 490.523 64 485 64V84ZM10 84H485V64H10V84Z" fill="black"/>
</svg>
