<svg width="48" height="52" viewBox="0 0 48 52" fill="none" xmlns="http://www.w3.org/2000/svg">
<path d="M21.7509 1.69698C22.3584 -0.127001 24.9384 -0.127005 25.546 1.69698L30.1737 15.5911C30.4308 16.3631 31.13 16.9023 31.942 16.9549L45.2334 17.8156C46.9749 17.9284 47.7467 20.0615 46.4805 21.2625L35.721 31.4683C35.2087 31.9542 34.9906 32.6742 35.1471 33.3626L38.6049 48.5754C39.0175 50.3909 36.9435 51.7358 35.4543 50.6184L24.8488 42.6607C24.1375 42.127 23.1593 42.127 22.4481 42.6607L11.8426 50.6184C10.3534 51.7358 8.27935 50.3909 8.692 48.5753L12.1498 33.3626C12.3063 32.6742 12.0881 31.9542 11.5759 31.4683L0.816347 21.2625C-0.449809 20.0615 0.321986 17.9284 2.06349 17.8156L15.3549 16.9549C16.1669 16.9023 16.866 16.3631 17.1232 15.5911L21.7509 1.69698Z" fill="#FFB800"/>
</svg>
