<svg width="45" height="45" viewBox="0 0 45 45" fill="none" xmlns="http://www.w3.org/2000/svg">
<path d="M21.7836 1.81152C22.4436 0.108543 24.8532 0.108544 25.5133 1.81152L30.1329 13.7309C30.4167 14.463 31.1026 14.9614 31.8867 15.005L44.6502 15.7153C46.4738 15.8168 47.2184 18.1085 45.8027 19.2624L35.8943 27.3393C35.2857 27.8354 35.0237 28.6418 35.2244 29.4009L38.4931 41.7592C38.9601 43.5249 37.0107 44.9413 35.4757 43.9515L24.7323 37.0239C24.0724 36.5984 23.2245 36.5984 22.5646 37.0239L11.8212 43.9515C10.2862 44.9413 8.3368 43.5249 8.8038 41.7592L12.0724 29.4009C12.2732 28.6418 12.0112 27.8354 11.4026 27.3393L1.49415 19.2624C0.0784808 18.1085 0.823089 15.8168 2.64668 15.7153L15.4102 15.005C16.1942 14.9614 16.8802 14.463 17.1639 13.7309L21.7836 1.81152Z" fill="#FFB800"/>
</svg>
