<svg width="938" height="38" viewBox="0 0 938 38" fill="none" xmlns="http://www.w3.org/2000/svg">
<path d="M0.333335 19C0.333336 29.3093 8.69069 37.6667 19 37.6667C29.3093 37.6667 37.6667 29.3093 37.6667 19C37.6667 8.69068 29.3093 0.333334 19 0.333335C8.69068 0.333336 0.333334 8.69069 0.333335 19ZM900.333 18.9999C900.333 29.3092 908.691 37.6666 919 37.6666C929.309 37.6666 937.667 29.3092 937.667 18.9999C937.667 8.6906 929.309 0.333255 919 0.333256C908.691 0.333257 900.333 8.69061 900.333 18.9999ZM19 22.5L919 22.4999L919 15.4999L19 15.5L19 22.5Z" fill="#171717"/>
</svg>
